<svg xmlns="http://www.w3.org/2000/svg" version="1.1" xmlns:xlink="http://www.w3.org/1999/xlink" xmlns:svgjs="http://svgjs.dev/svgjs" width="1500" height="399" viewBox="0 0 1500 399"><g transform="matrix(1,0,0,1,-1.8466386554623568,-0.9659999999999513)"><svg viewBox="0 0 357 95" data-background-color="#110f10" preserveAspectRatio="xMidYMid meet" height="399" width="1500" xmlns="http://www.w3.org/2000/svg" xmlns:xlink="http://www.w3.org/1999/xlink"><g id="tight-bounds" transform="matrix(1,0,0,1,0.43950000000003797,0.22999999999998977)"><svg viewBox="0 0 356.12052 94.53980381504087" height="94.53980381504087" width="356.12052"><g><svg viewBox="0 0 356.12052 94.53980381504087" height="94.53980381504087" width="356.12052"><g><svg viewBox="0 0 356.12052 94.53980381504087" height="94.53980381504087" width="356.12052"><g><path d="M0 94.54v-94.54h356.121v94.54z" fill="#cef196" stroke="transparent" stroke-width="0" rx="0%" data-fill-palette-color="tertiary"></path><path d="M3.283 91.257v-87.974h349.554v87.974z" fill="#110f10" stroke="transparent" stroke-width="0" rx="0%" data-fill-palette-color="quaternary"></path><path d="M9.85 84.69v-74.84h336.421v74.84z" fill="#cef196" stroke="transparent" stroke-width="0" data-fill-palette-color="tertiary"></path></g><g transform="matrix(1,0,0,1,19.69974,19.69974)" id="textblocktransform"><svg viewBox="0 0 316.72104 55.140323815040865" height="55.140323815040865" width="316.72104" id="textblock"><g><svg viewBox="0 0 316.72104 55.140323815040865" height="55.140323815040865" width="316.72104"><g transform="matrix(1,0,0,1,0,0)"><svg width="316.72104" viewBox="1.63 -33.48 241.65 42.08" height="55.140323815040865" data-palette-color="#110f10"><path d="M15.35 0L11.2 0 11.2-31.28 15.35-31.28 15.35 0ZM24.93-28.48L1.63-28.48 1.63-31.95 24.93-31.95 24.93-28.48ZM36.6 0.55L36.6 0.55Q31.02 0.55 28.2-2.18 25.37-4.9 25.37-9.98L25.37-9.98 25.37-14.33Q25.37-19.48 28-22.26 30.62-25.05 35.67-25.05L35.67-25.05Q39.07-25.05 41.35-23.79 43.62-22.53 44.77-20.2 45.92-17.88 45.92-14.65L45.92-14.65 45.92-13.75Q45.92-12.95 45.86-12.15 45.8-11.35 45.7-10.58L45.7-10.58 41.97-10.58Q42.02-11.78 42.03-12.85 42.05-13.93 42.05-14.83L42.05-14.83Q42.05-17.05 41.34-18.59 40.62-20.13 39.21-20.94 37.8-21.75 35.67-21.75L35.67-21.75Q32.52-21.75 30.95-19.93 29.37-18.1 29.37-14.7L29.37-14.7 29.37-12.38 29.4-11.88 29.4-9.55Q29.4-8.03 29.85-6.8 30.3-5.58 31.26-4.69 32.22-3.8 33.71-3.34 35.2-2.88 37.25-2.88L37.25-2.88Q39.62-2.88 41.67-3.5 43.72-4.13 45.52-5.2L45.52-5.2 45.15-1.7Q43.52-0.68 41.37-0.06 39.22 0.55 36.6 0.55ZM44.85-10.58L27.5-10.58 27.5-13.63 44.85-13.63 44.85-10.58ZM69.62 0L65.59 0 65.77-5.93 65.62-6.55 65.62-14.33 65.64-15.75Q65.64-18.73 64.13-20.15 62.62-21.58 59.34-21.58L59.34-21.58Q56.72-21.58 54.53-20.83 52.34-20.08 50.65-19.07L50.65-19.07 51.02-22.53Q51.97-23.1 53.28-23.66 54.59-24.23 56.28-24.6 57.97-24.98 60-24.98L60-24.98Q62.62-24.98 64.46-24.34 66.3-23.7 67.43-22.5 68.57-21.3 69.09-19.6 69.62-17.9 69.62-15.8L69.62-15.8 69.62 0ZM57.2 0.53L57.2 0.53Q53.57 0.53 51.63-1.24 49.7-3 49.7-6.28L49.7-6.28 49.7-7Q49.7-10.38 51.78-12.04 53.87-13.7 58.42-14.35L58.42-14.35 66.14-15.45 66.37-12.5 58.92-11.43Q56.12-11.03 54.92-10.06 53.72-9.1 53.72-7.23L53.72-7.23 53.72-6.83Q53.72-4.9 54.91-3.88 56.09-2.85 58.47-2.85L58.47-2.85Q60.57-2.85 62.07-3.58 63.57-4.3 64.5-5.53 65.42-6.75 65.75-8.25L65.75-8.25 66.37-5.5 65.59-5.5Q65.25-3.9 64.28-2.53 63.32-1.15 61.59-0.31 59.87 0.53 57.2 0.53ZM85.19 0.55L85.19 0.55Q79.94 0.55 77.38-2.29 74.82-5.13 74.82-10.33L74.82-10.33 74.82-14.13Q74.82-19.35 77.39-22.16 79.97-24.98 85.19-24.98L85.19-24.98Q86.74-24.98 88.02-24.69 89.29-24.4 90.31-23.94 91.32-23.48 92.02-22.98L92.02-22.98 92.37-19.45Q91.19-20.35 89.58-20.98 87.97-21.6 85.79-21.6L85.79-21.6Q82.29-21.6 80.58-19.66 78.87-17.73 78.87-14.03L78.87-14.03 78.87-10.43Q78.87-6.8 80.58-4.85 82.29-2.9 85.79-2.9L85.79-2.9Q88.04-2.9 89.68-3.53 91.32-4.15 92.59-5.05L92.59-5.05 92.22-1.48Q91.12-0.73 89.34-0.09 87.57 0.55 85.19 0.55ZM117.87 0L113.82 0 113.82-15.18Q113.82-17.15 113.28-18.57 112.74-20 111.53-20.79 110.32-21.58 108.22-21.58L108.22-21.58Q106.29-21.58 104.89-20.85 103.49-20.13 102.63-18.89 101.77-17.65 101.42-16.07L101.42-16.07 100.52-18.95 101.57-18.95Q101.94-20.6 102.94-21.96 103.94-23.33 105.63-24.14 107.32-24.95 109.74-24.95L109.74-24.95Q112.64-24.95 114.43-23.85 116.22-22.75 117.04-20.69 117.87-18.63 117.87-15.63L117.87-15.63 117.87 0ZM101.54 0L97.49 0 97.49-33.13 101.52-33.13 101.52-25.18 101.39-18.18 101.54-17.85 101.54 0ZM133.51 0.58L133.51 0.58Q131.21 0.58 129.3 0.2 127.39-0.18 125.89-0.73 124.39-1.28 123.39-1.83L123.39-1.83 122.96-5.95Q124.89-4.8 127.5-3.94 130.11-3.08 133.19-3.08L133.19-3.08Q136.89-3.08 138.66-4.39 140.44-5.7 140.44-8.33L140.44-8.33 140.44-8.72Q140.44-10.45 139.74-11.55 139.04-12.65 137.38-13.4 135.71-14.15 132.86-14.8L132.86-14.8Q129.26-15.65 127.1-16.81 124.94-17.98 123.98-19.73 123.01-21.48 123.01-24.08L123.01-24.08 123.01-24.3Q123.01-28.23 125.59-30.36 128.16-32.5 133.39-32.5L133.39-32.5Q136.81-32.5 139.23-31.8 141.64-31.1 143.16-30.25L143.16-30.25 143.54-26.45Q141.76-27.5 139.4-28.24 137.04-28.98 133.99-28.98L133.99-28.98Q131.56-28.98 130.06-28.4 128.56-27.83 127.89-26.75 127.21-25.68 127.21-24.15L127.21-24.15 127.21-24.05Q127.21-22.5 127.88-21.4 128.54-20.3 130.2-19.5 131.86-18.7 134.94-17.95L134.94-17.95Q138.46-17.13 140.59-16.05 142.71-14.98 143.68-13.25 144.64-11.53 144.64-8.75L144.64-8.75 144.64-8.22Q144.64-3.9 141.85-1.66 139.06 0.58 133.51 0.58ZM159.64 0.55L159.64 0.55Q154.39 0.55 151.82-2.29 149.26-5.13 149.26-10.33L149.26-10.33 149.26-14.13Q149.26-19.35 151.84-22.16 154.41-24.98 159.64-24.98L159.64-24.98Q161.19-24.98 162.46-24.69 163.74-24.4 164.75-23.94 165.76-23.48 166.46-22.98L166.46-22.98 166.81-19.45Q165.64-20.35 164.02-20.98 162.41-21.6 160.24-21.6L160.24-21.6Q156.74-21.6 155.02-19.66 153.31-17.73 153.31-14.03L153.31-14.03 153.31-10.43Q153.31-6.8 155.02-4.85 156.74-2.9 160.24-2.9L160.24-2.9Q162.49-2.9 164.12-3.53 165.76-4.15 167.04-5.05L167.04-5.05 166.66-1.48Q165.56-0.73 163.79-0.09 162.01 0.55 159.64 0.55ZM175.78-14.93L175.78-14.93 174.86-18.05 175.86-18.1Q176.66-21.2 178.61-22.99 180.56-24.78 183.78-24.78L183.78-24.78Q184.58-24.78 185.22-24.65 185.86-24.53 186.36-24.35L186.36-24.35 186.61-20.43Q185.98-20.63 185.22-20.75 184.46-20.88 183.53-20.88L183.53-20.88Q180.78-20.88 178.75-19.35 176.71-17.82 175.78-14.93ZM175.98 0L171.93 0 171.93-24.4 175.88-24.4 175.68-17.2 175.98-16.9 175.98 0ZM194.71 0L190.66 0 190.66-24.4 194.71-24.4 194.71 0ZM192.68-28.4L192.68-28.4Q191.43-28.4 190.82-29.06 190.21-29.73 190.21-30.88L190.21-30.88 190.21-31Q190.21-32.18 190.82-32.83 191.43-33.48 192.68-33.48L192.68-33.48Q193.93-33.48 194.56-32.83 195.18-32.18 195.18-31L195.18-31 195.18-30.88Q195.18-29.7 194.56-29.05 193.93-28.4 192.68-28.4ZM213.43 0.53L213.43 0.53Q211.18 0.53 209.53-0.23 207.88-0.98 206.85-2.38 205.83-3.78 205.48-5.63L205.48-5.63 204.15-5.63 205.33-9.43Q205.43-7.23 206.32-5.76 207.2-4.3 208.73-3.58 210.25-2.85 212.18-2.85L212.18-2.85Q215.25-2.85 216.89-4.65 218.53-6.45 218.53-9.93L218.53-9.93 218.53-14.6Q218.53-18.05 216.9-19.85 215.28-21.65 212.18-21.65L212.18-21.65Q210.33-21.65 208.9-20.93 207.48-20.2 206.54-18.95 205.6-17.7 205.25-16.1L205.25-16.1 204.25-18.93 205.43-18.93Q205.83-20.6 206.79-21.96 207.75-23.33 209.44-24.14 211.13-24.95 213.6-24.95L213.6-24.95Q218-24.95 220.3-22.21 222.6-19.48 222.6-14.28L222.6-14.28 222.6-10.23Q222.6-4.98 220.29-2.23 217.98 0.53 213.43 0.53ZM205.43 8.6L201.4 8.6 201.4-24.4 205.45-24.4 205.28-18.53 205.33-17.28 205.33-7 205.3-6.18 205.43 0.68 205.43 8.6ZM236.9 0.5L236.9 0.5Q234.08 0.5 232.35-0.35 230.63-1.2 229.85-2.93 229.08-4.65 229.08-7.23L229.08-7.23 229.08-22.63 233.08-22.63 233.08-7.7Q233.08-5.3 234.18-4.16 235.28-3.03 237.88-3.03L237.88-3.03Q239.35-3.03 240.71-3.35 242.08-3.68 243.28-4.28L243.28-4.28 242.9-0.8Q241.73-0.2 240.15 0.15 238.58 0.5 236.9 0.5ZM242.65-20.8L225.08-20.8 225.08-24.05 243.03-24.05 242.65-20.8ZM232.98-23.65L229.1-23.65 229.08-30.5 233.15-31.03 232.98-23.65Z" opacity="1" transform="matrix(1,0,0,1,0,0)" fill="#110f10" class="wordmark-text-0" data-fill-palette-color="quaternary" id="text-0"></path></svg></g></svg></g></svg></g></svg></g><g></g></svg></g><defs></defs></svg><rect width="356.12052" height="94.53980381504087" fill="none" stroke="none" visibility="hidden"></rect></g></svg></g></svg>